<?xml version="1.0" encoding="UTF-8" standalone="no" ?>
<!DOCTYPE svg PUBLIC "-//W3C//DTD SVG 1.1//EN" "http://www.w3.org/Graphics/SVG/1.1/DTD/svg11.dtd">
<svg xmlns="http://www.w3.org/2000/svg" xmlns:xlink="http://www.w3.org/1999/xlink" version="1.1" width="640" height="640" viewBox="0 0 640 640" xml:space="preserve">
<desc>Created with Fabric.js 5.3.0</desc>
<defs>
</defs>
<g transform="matrix(1.6263380658 0 0 1.6263380658 140.7751985465 341.7448842593)" id="sona9N8FddmWf5-vbH4WH"  >
<path style="stroke: rgb(14,50,149); stroke-width: 0; stroke-dasharray: none; stroke-linecap: butt; stroke-dashoffset: 0; stroke-linejoin: miter; stroke-miterlimit: 4; fill: rgb(71,84,103); fill-rule: nonzero; opacity: 1;"  transform=" translate(0, 0)" d="M 0 -43.11225 C 23.79796 -43.11225 43.11225 -23.797960000000003 43.11225 0 C 43.11225 23.79796 23.797960000000003 43.11225 0 43.11225 C -23.79796 43.11225 -43.11225 23.797960000000003 -43.11225 0 C -43.11225 -23.79796 -23.797960000000003 -43.11225 0 -43.11225 z" stroke-linecap="round" />
</g>
<g transform="matrix(1.6263380658 0 0 1.6263380658 364.4474883294 460.4181099108)" id="78ZgHBgL8MnrmUf17smbk"  >
<path style="stroke: rgb(20,40,100); stroke-width: 0; stroke-dasharray: none; stroke-linecap: butt; stroke-dashoffset: 0; stroke-linejoin: miter; stroke-miterlimit: 4; fill: rgb(228,72,72); fill-rule: nonzero; opacity: 1;"  transform=" translate(-125.9839, -61.47959)" d="M 125.9839 0 C 194.52388000000002 0 250.34048 54.80836 251.9678 122.95918 L 0 122.95918 C 1.62732 54.80836000000001 57.44392 0 125.9839 0 z" stroke-linecap="round" />
</g>
<g transform="matrix(1.6263380658 0 0 1.6263380658 403.6126962356 202.1734672864)" id="WJtrUhH89SLR54jvzozk3"  >
<path style="stroke: rgb(8,92,23); stroke-width: 0; stroke-dasharray: none; stroke-linecap: butt; stroke-dashoffset: 0; stroke-linejoin: miter; stroke-miterlimit: 4; fill: rgb(255,197,49); fill-rule: nonzero; opacity: 1;"  transform=" translate(0, 0)" d="M 0 -72.44898 C 39.99184 -72.44898 72.44898 -39.99184 72.44898 0 C 72.44898 39.99184 39.99184 72.44898 0 72.44898 C -39.99184 72.44898 -72.44898 39.99184 -72.44898 0 C -72.44898 -39.99184 -39.99184 -72.44898 0 -72.44898 z" stroke-linecap="round" />
</g>
</svg>