<svg xmlns="http://www.w3.org/2000/svg" width="20" height="20" fill="none"><g stroke="#101828" stroke-linecap="round" stroke-linejoin="round" stroke-width="1.5" clip-path="url(#a)"><path d="M17.8571.714294H2.1428c-.37888 0-.74224.15051-1.01015.418416-.267907.26791-.418417.63128-.418417 1.01016v7.14285c0 .37888.15051.74228.418417 1.01018.26791.2679.63127.4184 1.01015.4184h15.7143c.3789 0 .7422-.1505 1.0101-.4184.268-.2679.4185-.6313.4185-1.01018V2.14287c0-.37888-.1505-.74225-.4185-1.01016-.2679-.267906-.6312-.418416-1.0101-.418416Z"/><path d="M15.7143 10.7143V7.85716c0-.37888-.1505-.74224-.4185-1.01015-.2679-.26791-.6312-.41842-1.0101-.41842H5.71427c-.37888 0-.74225.15051-1.01015.41842-.26791.26791-.41842.63127-.41842 1.01015v2.85714m-.71429 7.1429h.14286c.53043 0 1.03914-.2108 1.41421-.5858.37507-.3751.58579-.8838.58579-1.4142v-1.5715m10.71433 3.5715h-.1429c-.5304 0-1.0391-.2108-1.4142-.5858-.3751-.3751-.5858-.8838-.5858-1.4142v-1.5715m-4.28572 5v-5"/></g><defs><clipPath id="a"><path fill="#fff" d="M0 0h20v20H0z"/></clipPath></defs></svg>